<svg height="34" viewBox="0 0 34 34" width="34" xmlns="http://www.w3.org/2000/svg"><path d="m21.8832223 11.1020636c-.5173723-.0933276-.689863-.6530774-.7760917-.9329162v-6.81054083c0-1.86590455-1.3796927-3.35860657-3.1043003-3.35860657-1.5521834 0-2.8456474 1.30611877-3.1043335 2.89211242-.9485492 6.43730223-4.570255 8.58308168-6.8984968 9.23615908.08622871.2798749.08622871.4664581.08622871.6530413v18.0991156c0 .3731665.17245743.7463691 0 1.1195716h16.64264099c1.6383788-.3732025 2.7593854-1.0262439 3.5354771-2.7988568l3.5354771-13.4343903c.6898297-2.4256543-.4311769-4.7580169-2.9318761-4.6647253zm-13.8832223 19.8841066v-17.9723404c0-.5529787-.91426049-1.0138298-1.94284768-1.0138298h-3.08571744c-1.6 0-2.97143488 1.1060285-2.97143488 2.3963121v15.1152127c0 1.3824823 1.25715232 2.4884752 2.97143488 2.4884752h3.08571744c1.02858719 0 1.94284768-.4608155 1.94284768-1.0138298z" fill="#fe5a4c" stroke="#fff" stroke-width="2" transform="translate(1 1)"/></svg>